<?xml version="1.0" encoding="utf-8"?>
<!DOCTYPE svg PUBLIC "-//W3C//DTD SVG 1.0//EN" "http://www.w3.org/TR/2001/REC-SVG-20010904/DTD/svg10.dtd">
<svg version="1.0" xmlns="http://www.w3.org/2000/svg" width="1408px" height="786px" viewBox="0 0 1408 786" preserveAspectRatio="xMidYMid meet">
 <g fill="#8858aa">
  <path d="M688.4 555.8 c-6.7 -12.8 -19.5 -37.5 -28.8 -54.9 -9.2 -17.4 -20.1 -38.2 -24.3 -46 -4.1 -7.9 -11.9 -22.6 -17.2 -32.7 -5.3 -10.1 -15.1 -29 -21.8 -41.7 l-12.2 -23.3 0 -4.1 0 -4 120.2 0 120.2 0 0 3.3 0 3.2 -3.5 6.2 c-1.9 3.5 -11.6 21.7 -21.4 40.5 -9.8 18.8 -28.3 54.3 -41.1 78.8 -12.8 24.5 -29.6 56.6 -37.2 71.3 l-13.9 26.9 -3.6 0 -3.6 0 -12 -23.3z"/>
  <path d="M582.2 340.3 l0 -3.5 13.7 -36.6 c7.5 -20.3 14 -37.8 14.3 -39 l0.7 -2.4 2.3 -0.5 2.3 -0.5 90.6 0.2 90.5 0.3 6.5 17.4 c3.5 9.6 10 27.1 14.5 39 l8.2 21.6 0 3.8 0 3.7 -121.8 0 -121.8 0 0 -3.5z"/>
 </g>
 <g fill="#140a21">
  <path d="M668.8 567.2 c-17 -16.8 -71.4 -70.4 -120.8 -119.1 -49.5 -48.8 -98.9 -97.6 -109.7 -108.6 l-19.7 -20 0 -4.4 0 -4.4 6.3 -6.3 c29.7 -29 89.7 -86.4 92.3 -88.2 l3.2 -2.3 46.5 -12.3 46.5 -12.4 91.1 0 91.1 0 18.5 5 c10.1 2.9 31 8.4 46.1 12.4 l27.6 7.3 3.2 2.3 c2.7 1.8 82.6 78.6 94.9 91.1 l3.8 3.9 0 3.1 0 3.1 -1.4 2.8 -1.5 2.8 -44.8 44.5 c-49.2 48.9 -113.3 112.1 -159.9 158.1 -16.7 16.4 -39.9 39.2 -51.8 51 l-21.6 21.2 -4.3 0 -4.4 0 -30.9 -30.4z m49.6 -18 c7.7 -14.7 24.5 -46.9 37.2 -71.3 12.8 -24.5 31.3 -60 41.1 -78.8 9.8 -18.8 19.5 -37.1 21.5 -40.6 l3.6 -6.4 -117.3 0 -117.3 0 0 0.9 c0 0.9 13.4 27.1 34 66.1 5.3 10.1 13.1 24.9 17.2 32.7 4.2 7.9 15 28.7 24.3 46 9.2 17.5 22.1 42.2 28.8 54.9 6.5 12.8 12.2 23.3 12.5 23.3 0.3 0 6.8 -12.2 14.4 -26.9z m-56.3 -19.3 c-2.1 -4.1 -20.7 -39.5 -41.1 -78.6 -20.5 -39.1 -40.2 -76.8 -43.9 -83.9 l-6.7 -12.8 -27.6 -5.8 c-51.5 -10.8 -83.6 -17.4 -84 -16.9 -0.5 0.5 206.1 205.3 207.1 205.4 0.1 0 -1.5 -3.4 -3.8 -7.4z m271.6 -181.8 c9 -9.1 16 -16.5 15.5 -16.5 -1 0 -48.7 9.8 -69.7 14.4 -7.9 1.6 -20.6 4.3 -28.1 5.8 l-13.8 2.9 -2.7 5 c-1.4 2.9 -13.2 25.2 -26 49.6 -12.8 24.5 -29.9 57 -37.9 72.1 -8 15.2 -17.9 34.1 -22 42 l-7.6 14.3 88 -86.7 c48.3 -47.6 95.3 -94 104.3 -103z m-111 -7.9 c0 -0.4 -3.7 -10.4 -8.2 -22.3 -4.5 -11.9 -11.1 -29.4 -14.5 -39 l-6.5 -17.4 -87.4 -0.3 -87.5 -0.3 -2.3 0.6 -2.3 0.5 -0.7 2.4 c-0.3 1.2 -6.9 18.7 -14.3 39 -7.6 20.2 -13.7 36.8 -13.7 37 0 0.2 53.4 0.4 118.7 0.4 l118.7 0 0 -0.6z m34.3 -8.7 c7.9 -1.5 26.3 -5.4 40.9 -8.5 14.6 -3.1 34.7 -7.4 44.5 -9.4 l18 -3.8 -16.5 -16 c-17.3 -16.9 -42.3 -41 -54.2 -52.5 l-7.2 -6.9 -3.1 1.4 c-1.6 0.8 -9 3.6 -16.4 6.2 -7.3 2.6 -19.7 7 -27.6 9.7 -7.9 2.9 -17 6 -20.3 7.3 l-5.9 2 0.4 1.2 c0.2 0.6 6.5 17.5 14 37.7 l13.6 36.4 2.7 -1 c1.4 -0.5 9.1 -2.4 17 -4z m-274.7 -26.1 c5.9 -16.3 12.1 -32.7 13.6 -36.6 l2.9 -7.1 -1.2 -0.8 c-0.7 -0.4 -15.9 -5.9 -33.6 -12.3 -17.8 -6.3 -33.7 -12.1 -35.4 -12.8 l-3.1 -1.2 -4.6 4.2 c-2.6 2.3 -20.1 19.2 -38.9 37.6 l-34.3 33.5 11.3 2.3 c6.1 1.2 33.6 7.1 60.9 12.9 27.3 5.8 50 10.4 50.7 10.3 l1 -0.3 10.7 -29.6z m226.1 -64.1 c7.1 -2.7 20.3 -7.5 29.4 -10.8 l16.7 -5.9 -9.5 -2.4 c-5.1 -1.3 -19.4 -5.1 -31.7 -8.5 l-22.3 -6 -87.7 0.3 -87.7 0.3 -20 5.3 c-10.9 2.9 -24.6 6.5 -30.2 8 -5.6 1.5 -10.3 2.9 -10.5 3 -0.1 0.2 13 5.1 29.2 11.1 l29.5 10.8 91.1 -0.2 91.1 -0.1 12.8 -4.8z"/>
 </g>
 <g fill="#9869b8">
  <path d="M732.4 546.2 c3.4 -6.3 9.4 -18 13.5 -25.9 4.1 -7.9 14 -26.7 22 -42 8 -15.1 25.1 -47.7 37.9 -72.1 12.8 -24.5 24.6 -46.8 26 -49.6 l2.7 -5 13.8 -2.9 c7.6 -1.5 20.3 -4.2 28.1 -5.8 7.9 -1.7 27 -5.7 42.5 -8.8 15.5 -3.2 29.6 -6.1 31.2 -6.7 1.7 -0.6 5.3 -1.3 8 -1.6 l4.8 -0.7 -49.4 49 c-27.1 27 -63.1 62.6 -80 79.2 -16.9 16.6 -47.6 46.9 -68.1 67.2 -20.6 20.5 -37.8 37.1 -38.2 37.1 l-0.7 0 6 -11.5z"/>
  <path d="M819.5 300.1 c-8.1 -21.9 -14.7 -40.1 -14.7 -40.6 l0 -0.8 9.7 -3.6 c5.3 -1.9 14.8 -5.3 21 -7.5 28.2 -9.8 38.2 -13.5 42.2 -15.3 2.5 -1.1 4.9 -2 5.6 -2 l1.3 0 41.4 40 c22.8 22 41.5 40.4 41.7 40.9 l0.3 0.8 -2.4 0.5 c-1.3 0.3 -10.4 2.1 -20.3 4.2 -9.8 2 -29.9 6.2 -44.5 9.3 -14.6 3.1 -33.1 7 -40.9 8.5 -7.9 1.6 -15.7 3.5 -17.2 4.1 -1.6 0.6 -4.2 1.1 -5.7 1.1 l-2.8 0 -14.8 -39.6z"/>
  <path d="M592.5 242.8 c-9.8 -3.7 -24.8 -9.1 -33.1 -12 l-15.1 -5.3 1.8 -1.6 1.8 -1.5 10.2 -2.8 c5.6 -1.4 16.1 -4.3 23.2 -6.1 7.2 -1.9 18.2 -4.7 24.7 -6.1 l11.7 -2.7 88.3 0 88.3 0 18.5 5 c22.2 6.1 46.3 12.5 49.5 13.2 1.2 0.2 2.5 0.8 2.8 1.1 l0.4 0.8 -17.6 6.2 c-9.7 3.4 -24.8 8.9 -33.5 12.2 l-15.9 5.9 -94.1 0.1 -94.1 0.2 -17.9 -6.7z"/>
 </g>
 <g fill="#6d3f92">
  <path d="M648.7 526.7 c-16.6 -16.4 -45.4 -44.8 -64 -63 -18.6 -18.2 -57.3 -56.6 -86.1 -85.2 l-52.3 -52.1 0.9 -0.5 0.8 -0.5 17.2 3.6 c9.4 1.9 32.9 6.9 52.4 10.9 19.4 4.1 39.9 8.3 45.5 9.5 l10.2 2.1 7.3 13.8 c43.2 82.4 80.9 154.7 89.4 171.2 l10.4 20.2 -0.9 0 c-0.4 0 -14.4 -13.5 -31 -30z"/>
 </g>
 <g fill="#7d4da0">
  <path d="M518.8 328.4 c-28.4 -6 -57.8 -12.3 -65.3 -13.8 l-13.6 -2.8 0.3 -0.7 c0.3 -0.7 69.8 -68.4 78.4 -76.1 l5.3 -5 10 3.7 c5.4 2 23 8.4 39.1 14 16.1 5.7 29.6 10.7 30 11.2 l0.8 0.8 -4.2 10.6 c-2.4 5.8 -8.8 23.1 -14.3 38.3 -5.5 15.2 -10.4 28.4 -10.7 29.5 l-0.7 1.7 -1.7 -0.1 c-0.9 -0.1 -24.9 -5.1 -53.3 -11.3z"/>
 </g>
</svg>